<?xml version="1.0" encoding="utf-8"?>
<!DOCTYPE svg PUBLIC "-//W3C//DTD SVG 1.1//EN" "http://www.w3.org/Graphics/SVG/1.1/DTD/svg11.dtd">
<svg version="1.1" xmlns="http://www.w3.org/2000/svg" xmlns:xlink="http://www.w3.org/1999/xlink" viewBox="0 0 250 160">
  <view id="logo-microsoft" viewBox="0 0 43.922 41.992" />
  <view id="logo-android" viewBox="0 50 42.084 47.041" />
  <view id="logo-apple" viewBox="0 100 46.21 56.753" />
  <view id="icon-yes" viewBox="50 0 30.4 21.7" />
  <view id="icon-check" viewBox="50 25 30.4 21.7" />
  <view id="icon-no" viewBox="50 50 26.752 26.752" />
  <view id="icon-marker" viewBox="50 100 35.983 35.983" />
  <view id="icon-twitter" viewBox="100 0 17.5 14.663" />
  <view id="icon-facebook" viewBox="125 0 8.673 18.944" />
  <view id="icon-youtube" viewBox="150 0 14.64 13.96" />
  <view id="icon-quotes" viewBox="100 30 78.672 63.789" />
  <view id="icon-arrow-left" viewBox="100 100 21.706 41.719" />
  <view id="icon-arrow-right" viewBox="125 100 21.706 41.719" />
  <view id="icon-phone" viewBox="150 100 19.697 19.696" />
  <view id="icon-mail" viewBox="175 100 17.988 13.966" />
  <view id="icon-heart" viewBox="150 125 12.545 11.99" />
  <view id="icon-timer" viewBox="200 0 36.268 42" />
  <g>
    <path fill="#F05423" d="M20.874,19.953H0V0h20.874V19.953z"/>
    <path fill="#84C441" d="M43.922,19.953H23.049V0h20.873V19.953z"/>
    <path fill="#2DABE2" d="M20.873,41.992H0V22.04h20.873V41.992z"/>
    <path fill="#F9BC15" d="M43.922,41.992H23.049V22.04h20.873V41.992z"/>
  </g>
  <g transform="translate(0, 50)" fill="#A4C639">
    <path d="M34.144,14.009H7.945c-0.009,0.11-0.018,0.22-0.018,0.333v18.755c0,1.926,1.457,3.49,3.316,3.627v7.434c0,1.594,1.291,2.885,2.885,2.885c1.593,0,2.885-1.291,2.885-2.885v-7.42h8.058v7.42c0,1.594,1.291,2.885,2.885,2.885c1.595,0,2.886-1.291,2.886-2.885v-7.434c1.858-0.137,3.315-1.701,3.315-3.627V14.342C34.157,14.229,34.153,14.119,34.144,14.009z"/>
    <path d="M2.886,15.679L2.886,15.679c1.593,0,2.886,1.292,2.886,2.885v12.378c0,1.595-1.292,2.886-2.886,2.886l0,0C1.292,33.828,0,32.537,0,30.942V18.564C0,16.97,1.292,15.679,2.886,15.679z"/>
    <path d="M39.198,15.679L39.198,15.679c1.595,0,2.886,1.292,2.886,2.885v12.378c0,1.595-1.291,2.886-2.886,2.886l0,0c-1.594,0-2.885-1.291-2.885-2.886V18.564C36.313,16.97,37.604,15.679,39.198,15.679z"/>
    <path d="M8.03,11.967h26.026c-0.039-2.783-1.234-5.322-3.187-7.275l2.446-4.235c0.082-0.146,0.031-0.331-0.112-0.415c-0.146-0.084-0.331-0.034-0.415,0.111L30.416,4.26c-2.052-1.853-6.249-3.4-9.374-3.4l0,0c-3.016,0-7.322,1.547-9.374,3.4L9.296,0.152C9.213,0.007,9.027-0.042,8.881,0.041C8.736,0.125,8.686,0.311,8.77,0.456l2.445,4.235C9.265,6.645,8.068,9.184,8.03,11.967z M25.323,6.804c-0.002-0.805,0.664-1.46,1.488-1.462c0.826-0.002,1.494,0.648,1.498,1.454c0,0.002,0,0.005,0,0.008c0.002,0.805-0.664,1.46-1.49,1.462c-0.823,0.002-1.493-0.649-1.496-1.454C25.323,6.81,25.323,6.807,25.323,6.804z M14.18,6.804c-0.001-0.805,0.665-1.46,1.489-1.462c0.824-0.002,1.494,0.648,1.497,1.454c0,0.002,0,0.005,0,0.008c0.002,0.805-0.664,1.46-1.488,1.462c-0.825,0.002-1.495-0.649-1.498-1.454C14.18,6.81,14.18,6.807,14.18,6.804z"/>
  </g>
  <g transform="translate(0, 100)" fill="#FFFFFF">
    <path d="M38.593,30.15c0.081,8.59,7.535,11.447,7.617,11.483c-0.062,0.202-1.19,4.073-3.927,8.072c-2.365,3.457-4.82,6.901-8.688,6.973c-3.799,0.07-5.021-2.253-9.365-2.253c-4.344,0-5.702,2.182-9.298,2.323c-3.733,0.142-6.576-3.739-8.961-7.184c-4.875-7.046-8.598-19.91-3.597-28.593c2.484-4.313,6.925-7.043,11.743-7.114c3.666-0.069,7.126,2.466,9.366,2.466c2.241,0,6.444-3.049,10.865-2.601c1.85,0.077,7.044,0.747,10.38,5.629C44.459,19.519,38.531,22.971,38.593,30.15 M31.453,9.062C33.435,6.662,34.769,3.323,34.405,0c-2.857,0.115-6.312,1.904-8.36,4.302c-1.837,2.123-3.445,5.521-3.011,8.778C26.218,13.326,29.47,11.461,31.453,9.062"/>
  </g>
  <g transform="translate(50, 0)" fill="#3dc644">
    <path id="internal-icon-yes" d="M29.9,0.4c-0.6-0.6-1.5-0.6-2.1,0L10.2,18.1l-7.6-7.6C2,9.9,1,9.9,0.4,10.4c-0.6,0.6-0.6,1.5,0,2.1l8.7,8.7c0.3,0.3,0.7,0.4,1.1,0.4c0.4,0,0.8-0.1,1.1-0.4L29.9,2.6C30.5,2,30.5,1,29.9,0.4z"/>
  </g>
  <g transform="translate(50, 25)" fill="#f25b26">
    <use xlink:href="#internal-icon-yes" />
  </g>
  <g transform="translate(50, 50)" fill="#f25b26">
    <path d="M15.497,13.376L26.312,2.562c0.586-0.585,0.586-1.535,0-2.121s-1.535-0.586-2.121,0L13.376,11.255L2.562,0.439c-0.586-0.586-1.535-0.586-2.121,0c-0.586,0.585-0.586,1.535,0,2.121l10.814,10.815L0.439,24.19c-0.586,0.586-0.586,1.535,0,2.121c0.293,0.293,0.677,0.439,1.061,0.439s0.768-0.146,1.061-0.439l10.815-10.814L24.19,26.312c0.293,0.293,0.677,0.439,1.061,0.439s0.768-0.146,1.061-0.439c0.586-0.586,0.586-1.535,0-2.121L15.497,13.376z"/>
  </g>
  <g transform="translate(50, 100)" fill="#f25b26">
    <circle fill="#FFFFFF" cx="17.991" cy="17.991" r="17.991"/>
    <circle fill="#D22856" cx="17.991" cy="17.991" r="7.866"/>
  </g>
  <g transform="translate(100, 0)" fill="#d22856">
    <path fill-rule="evenodd" clip-rule="evenodd" d="M11.283,0.153c1.736-0.485,3.074,0.263,3.685,1.151c0.694-0.226,1.372-0.47,2.072-0.691c-0.004,0.841-0.538,1.478-0.883,1.727C16.861,2.506,17.5,1.86,17.5,1.86c-0.175,0.976-1.035,1.746-1.611,1.977C15.65,10.429,12.617,14.793,5.507,14.66c-0.538,0,0.077,0-0.46,0c-0.422,0-4.29-0.45-5.047-1.843c2.341,0.192,4.011-0.412,4.835-1.15c-0.989-0.293-2.761-0.464-3.07-2.881c0.362,0.105,0.583,0.223,1.228,0.117C1.757,8.067,0.385,7.366,0.461,5.218c0.294,0.32,1.1,0.523,1.381,0.461c-0.725-0.235-2.03-3.281-0.921-4.836C2.794,2.654,4.769,4.364,8.29,4.528C8.506,2.288,9.461,0.787,11.283,0.153z"/>
  </g>
  <g transform="translate(125, 0)" fill="#d22856">
    <path d="M6.275,3.357c0.799,0,1.599,0,2.398,0c0-1.119,0-2.238,0-3.357c-0.959,0-1.92,0-2.878,0C2.656,0.181,1.54,2.387,1.948,6.115H0v3.517h1.958c0,3.104,0,6.208,0,9.312c1.279,0,2.558,0,3.837,0c0-3.104,0-6.208,0-9.312h2.857V6.115H5.786C5.765,5.07,5.75,3.709,6.275,3.357z"/>
  </g>
  <g transform="translate(150, 0)" fill="#d22856">
    <path d="M1.775,13.78C0.799,14.257,0,13.758,0,12.671V1.29c0-1.088,0.799-1.585,1.775-1.109l12.133,5.932c0.975,0.478,0.975,1.258,0,1.736L1.775,13.78z"/>
  </g>
  <g transform="translate(100, 30)" fill="#efefef">
    <path d="M34.967,7.063L30.713,0C28.272,1.495,0,12.207,0,39.617c0,7.231,0.336,24.172,18.9,24.172c11.187,0,13.94-10.279,13.94-13.584c0-21.977-21.382-14.177-21.382-14.177C11.458,17.957,31.263,9.184,34.967,7.063z"/>
    <path d="M78.672,7.063L74.418,0c-2.44,1.495-30.713,12.207-30.713,39.617c0,7.231,0.337,24.172,18.9,24.172c11.187,0,13.939-10.279,13.939-13.584c0-21.977-21.381-14.177-21.381-14.177C55.165,17.957,74.969,9.184,78.672,7.063z"/>
  </g>
  <g transform="translate(100, 100)" fill="#283645">
    <path d="M2.045,20.859L21.458,1.446c0.331-0.331,0.331-0.867,0-1.198c-0.33-0.331-0.867-0.331-1.197,0L0.248,20.261c-0.331,0.33-0.331,0.867,0,1.197l20.013,20.013c0.164,0.165,0.382,0.248,0.599,0.248s0.434-0.083,0.599-0.248c0.331-0.331,0.331-0.867,0-1.198L2.045,20.859z"/>
  </g>
  <g transform="translate(125, 100)" fill="#283645">
    <path d="M19.661,20.859L0.248,1.446c-0.331-0.331-0.331-0.867,0-1.198c0.33-0.331,0.867-0.331,1.197,0l20.013,20.012c0.33,0.33,0.33,0.867,0,1.197L1.445,41.471c-0.164,0.165-0.382,0.248-0.599,0.248s-0.434-0.083-0.599-0.248c-0.331-0.331-0.331-0.867,0-1.198L19.661,20.859z"/>
  </g>
  <g transform="translate(150, 100)" fill="#d22856">
    <path d="M9.848,0C6.34,0,2.823,0.628,1.546,1.878c-1.058,1.04-1.412,2.874-1.53,4.035c0,0-0.016,0.115-0.016,0.165c0,0.454,0.369,0.82,0.819,0.82c0.054,0,2.028-0.161,3.218-0.259c0.029-0.004,0.058-0.008,0.086-0.017C4.566,6.61,4.924,6.25,4.924,5.803l0.003-1.617c0-0.5,0.407-0.902,0.907-0.902h8.027c0.499,0,0.907,0.402,0.907,0.902l0.003,1.617c0,0.447,0.356,0.808,0.802,0.82c0.027,0.009,0.056,0.013,0.085,0.017c1.19,0.098,3.164,0.259,3.217,0.259c0.451,0,0.822-0.366,0.822-0.82c0-0.05-0.018-0.165-0.018-0.165c-0.118-1.161-0.472-2.995-1.53-4.035C16.873,0.628,13.356,0,9.848,0z M9.848,10.67c-0.908,0-1.643,0.733-1.643,1.64c0,0.907,0.734,1.641,1.643,1.641c0.906,0,1.641-0.733,1.641-1.641C11.488,11.404,10.754,10.67,9.848,10.67z M8.616,6.975V5.951c0-0.567-0.46-1.026-1.025-1.026c-0.566,0-1.024,0.459-1.024,1.026v1.024l-5.537,5.913c-0.382,0.376-0.619,0.894-0.619,1.47v1.646c0,0.907,0.734,1.643,1.641,1.643h0.411v1.023c0,0.568,0.46,1.026,1.026,1.026c0.565,0,1.024-0.458,1.024-1.026v-1.023h10.669v1.023c0,0.568,0.46,1.026,1.025,1.026c0.567,0,1.026-0.458,1.026-1.026v-1.023h0.411c0.905,0,1.64-0.735,1.64-1.643v-1.646c0-0.576-0.236-1.094-0.618-1.47L13.13,6.975V5.951c0-0.567-0.459-1.026-1.024-1.026c-0.567,0-1.027,0.459-1.027,1.026v1.024H8.616z M9.848,9.028c1.814,0,3.282,1.468,3.282,3.282s-1.468,3.282-3.282,3.282c-1.813,0-3.281-1.468-3.281-3.282S8.034,9.028,9.848,9.028z"/>
  </g>
  <g transform="translate(175, 100)" fill="#d22856">
    <path d="M14.914,1.814C16.111,0.816,15.816,0,14.257,0H3.731c-1.56,0-1.854,0.816-0.657,1.814l3.742,3.118c1.197,0.998,3.158,0.998,4.355,0L14.914,1.814z"/>
    <path d="M11.913,7.044C10.715,8.042,9.718,8.869,9.695,8.88c0,0,0,0-0.02,0.013C9.601,8.949,9.523,8.995,9.44,9.029C9.407,9.044,9.374,9.063,9.34,9.077c-0.11,0.034-0.223,0.058-0.335,0.059c-0.003,0-0.007,0.001-0.01,0.001c0,0,0,0-0.001,0s-0.001,0-0.001,0c-0.003,0-0.007-0.001-0.01-0.001C8.87,9.134,8.759,9.111,8.648,9.077C8.614,9.063,8.58,9.044,8.548,9.029c-0.083-0.034-0.16-0.08-0.235-0.136C8.293,8.88,8.293,8.88,8.293,8.88c-0.022-0.012-1.02-0.838-2.218-1.836L2.178,3.796C0.979,2.798,0,3.257,0,4.816v6.315c0,1.56,1.275,2.835,2.835,2.835h12.318c1.56,0,2.835-1.275,2.835-2.835V4.816c0-1.559-0.979-2.018-2.178-1.02L11.913,7.044z"/>
  </g>
  <g transform="translate(150, 125)" fill="#d22856">
    <path d="M6.235,11.99a0.735,0.735,0,0,1-.552-0.249C1.886,7.417,1.04,6.443.825,6.169l0,0A3.863,3.863,0,0,1,0,3.8,3.821,3.821,0,0,1,6.283.9,3.846,3.846,0,0,1,8.746,0a3.8,3.8,0,0,1,3.8,3.8,3.487,3.487,0,0,1-.9,2.381L6.788,11.74a0.734,0.734,0,0,1-.552.25h0ZM1.99,5.284C2.2,5.539,4.461,8.123,6.233,10.143L10.557,5.2a2.037,2.037,0,0,0,.519-1.4,2.333,2.333,0,0,0-2.33-2.331,2.437,2.437,0,0,0-1.9.943,0.763,0.763,0,0,1-.585.275,0.729,0.729,0,0,1-.575-0.294A2.349,2.349,0,0,0,1.469,3.8a2.36,2.36,0,0,0,.507,1.467A0.133,0.133,0,0,1,1.99,5.284Z"/>
  </g>
  <g transform="translate(200, 0)" fill="#dedede">
    <path d="M32.2,12.4l0.7-0.7c0.9-0.9,1.1-2.3,0.4-3c-0.7-0.7-2.1-0.6-3,0.4l-0.7,0.7c-2.6-2.1-5.7-3.5-9.1-3.9V4.7h0.9c1.3,0,2.4-1.1,2.4-2.4S22.7,0,21.4,0h-6.5c-1.3,0-2.4,1.1-2.4,2.4s1.1,2.4,2.4,2.4h0.9v1.2C6.9,7,0,14.6,0,23.9C0,33.9,8.1,42,18.1,42c10,0,18.1-8.1,18.1-18.1C36.3,19.5,34.7,15.5,32.2,12.4z M18.1,37.3c-7.4,0-13.4-6-13.4-13.4s6-13.4,13.4-13.4c7.4,0,13.4,6,13.4,13.4S25.5,37.3,18.1,37.3z"/>
  </g>
</svg>
